<svg width="24" height="24" viewBox="0 0 24 24" fill="none" xmlns="http://www.w3.org/2000/svg">
<path fill-rule="evenodd" clip-rule="evenodd" d="M20.8649 15.2C20.7357 15.0799 20.6376 14.9553 20.6044 14.84C20.4739 14.383 20.6459 13.0548 20.9048 12.6401C21.1628 12.2239 20.877 10.975 20.7926 10.7683C20.7058 10.5604 20.6767 10.2906 20.3805 10.3724C20.0825 10.4558 19.4132 10.4247 18.8078 10.3002C18.2008 10.1768 17.6723 9.59214 17.5514 8.93281C17.4159 8.19366 17.4159 7.47567 17.5888 7.02547C17.782 6.5194 18.2577 6.32783 18.6932 6.08917C18.8938 5.97981 19.8644 5.82496 19.8279 5.358C19.6022 4.92776 17.5418 5.41707 17.4592 4.74856C17.3756 4.07886 17.3461 3.74281 17.6075 3.20402C17.8817 2.64207 17.5663 2.7171 17.4907 2.03583C17.4803 1.93884 17.6951 1.6882 17.7122 1.6C18.4231 2.0043 19.0908 2.48762 19.6899 3.06313C21.5667 4.8667 22.6 7.26454 22.6 9.81524C22.6 11.7669 21.9905 13.6255 20.8649 15.2M14.4437 14.8971C14.034 15.5476 14.1325 16.0268 13.1978 16.5242C12.6772 16.8014 12.3068 16.88 12.0314 17.6248C11.7548 18.368 11.2962 18.3418 10.1513 18.9456C9.00471 19.5509 8.54928 18.9456 8.45589 18.4813C8.36289 18.017 8.64545 16.9203 8.64545 16.9203C8.64545 16.9203 8.75752 16.5927 7.94521 16.2227C5.89098 15.2872 7.66344 12.0029 7.66344 12.0029C7.19926 11.4596 6.02053 10.394 4.37484 10.045C2.80148 9.71208 2.3528 8.78873 1.8 7.867C2.20457 6.16056 3.05463 4.59235 4.30967 3.31877C6.10479 1.49786 8.49086 0.400002 11.0315 0.400002C11.0315 0.400002 11.8883 0.400002 12.6971 0.6124C11.9575 1.42653 11.1301 2.24952 10.5153 2.47643C9.40849 2.88752 8.89542 3.56099 8.89066 4.27839C8.88827 4.64999 9.65766 5.32345 9.65766 6.17547C9.65766 7.62357 8.59498 7.65702 8.47099 7.04683C8.19121 5.66281 7.12097 6.0203 5.83931 6.15894C4.55567 6.2988 3.77793 7.81017 4.60216 8.41472C5.42799 9.01927 5.38547 8.22368 5.703 7.99677C6.01894 7.76946 6.24229 7.67959 6.48233 7.99677C6.72038 8.31396 7.23662 8.48646 7.18694 9.13736C7.14363 9.78785 7.00453 10.3448 7.87685 10.3448C8.74798 10.3448 8.77819 10.5391 9.33099 10.8176C9.87823 11.0965 10.3965 11.0441 10.8531 11.1376C11.3117 11.2299 11.9126 12.1279 11.9126 12.1279C13.2125 12.5539 13.6401 12.728 13.999 13.0907C14.3567 13.4534 14.8582 14.2462 14.4437 14.8971M11.9986 0H11.9954H11.9922C7.23149 0 3.13019 2.7812 1.19038 6.8C0.430136 8.3748 8.94955e-08 10.1344 8.94955e-08 12C-0.000800164 18.6264 5.3653 24 11.9938 24H11.997H12.0002C18.6263 24 24.0008 18.6264 24 12.0016C24.0008 5.314 18.5467 0 11.9986 0" fill="white"/>
</svg>
