<svg width="7" height="11" viewBox="0 0 7 11" fill="none" xmlns="http://www.w3.org/2000/svg">
<path fill-rule="evenodd" clip-rule="evenodd" d="M4.57866 4.25003C3.65532 4.25003 2.90836 3.50221 2.90836 2.57965C2.90836 1.65757 3.65532 0.909119 4.57866 0.909119C5.50167 0.909119 6.24927 1.65757 6.24927 2.57965C6.24927 3.50221 5.50167 4.25003 4.57866 4.25003M3.48394 1C1.54227 1 0 2.63678 0 4.65569C0 7.40791 2.95078 10.2519 2.95078 10.2519C3.34777 10.6278 3.59437 10.6585 4.01646 10.2519C4.01646 10.2519 7 7.40791 7 4.65569C7 2.63678 5.42544 1 3.48394 1" fill="#F55A5A"/>
</svg>
